<?xml version="1.0" standalone="no"?>
<!DOCTYPE svg PUBLIC "-//W3C//DTD SVG 20010904//EN"
 "http://www.w3.org/TR/2001/REC-SVG-20010904/DTD/svg10.dtd">
<svg version="1.0" xmlns="http://www.w3.org/2000/svg"
 width="512.000000pt" height="512.000000pt" viewBox="0 0 512.000000 512.000000"
 preserveAspectRatio="xMidYMid meet">

<g transform="translate(0.000000,512.000000) scale(0.100000,-0.100000)"
fill="#000000" stroke="none">
<path d="M2076 5097 c-15 -16 -49 -100 -100 -255 l-78 -232 -336 0 c-378 0
-420 -5 -527 -65 -118 -66 -210 -183 -249 -314 -14 -49 -16 -258 -16 -2118 l0
-2064 25 -24 24 -25 245 0 c317 0 286 -23 331 245 19 110 37 215 40 233 l6 32
684 0 685 0 0 -210 c0 -224 7 -267 48 -289 14 -7 145 -11 390 -11 l369 0 27
26 c25 26 26 30 26 149 0 174 -27 237 -126 300 l-47 30 88 3 c48 2 89 1 92 -1
2 -2 21 -107 43 -233 35 -211 40 -230 65 -251 26 -23 31 -23 271 -23 l245 0
24 25 25 24 0 2064 c0 1860 -2 2069 -16 2118 -39 131 -131 248 -249 314 -107
60 -149 65 -527 65 l-336 0 -78 232 c-81 243 -100 278 -149 278 -14 0 -97 -18
-185 -40 -128 -32 -177 -40 -250 -40 -73 0 -122 8 -250 40 -88 22 -171 40
-185 40 -14 0 -36 -10 -49 -23z m-376 -791 c0 -67 5 -137 11 -155 14 -39 54
-61 114 -61 l45 0 0 -295 c0 -314 5 -351 48 -374 29 -15 1255 -15 1284 0 43
23 48 60 48 374 l0 295 45 0 c60 0 100 22 114 61 6 18 11 88 11 156 l0 124
253 -3 c247 -3 253 -3 307 -29 104 -49 171 -140 190 -255 6 -34 10 -390 10
-844 l0 -785 -365 365 -365 365 -890 0 -890 0 -365 -365 -366 -365 3 825 c3
756 5 829 21 869 36 92 103 159 195 197 54 22 68 24 300 24 l242 0 0 -124z
m690 -386 l0 -170 85 0 85 0 0 170 0 170 255 0 255 0 0 -250 0 -250 -510 0
-510 0 0 250 0 250 170 0 170 0 0 -170z m-90 -957 c0 -58 -2 -104 -4 -102 -2
2 -27 50 -55 107 l-51 102 55 0 55 0 0 -107z m579 5 c-28 -57 -53 -105 -55
-107 -2 -2 -4 44 -4 102 l0 107 55 0 55 0 -51 -102z m-1259 -1153 l0 -615 -80
0 -80 0 0 537 0 538 77 77 c43 43 79 78 80 78 2 0 3 -277 3 -615z m2040 178
l0 -283 -80 0 -80 0 0 362 0 363 80 -80 80 -80 0 -282z m-2380 142 l0 -85
-170 0 -170 0 0 85 0 85 170 0 170 0 0 -85z m2900 0 l0 -85 -170 0 -170 0 0
85 0 85 170 0 170 0 0 -85z m-2923 -1647 c-3 -13 -16 -87 -28 -165 l-23 -143
-133 0 -133 0 0 165 0 165 161 0 161 0 -5 -22z m2923 -143 l0 -165 -133 0
-133 0 -23 142 c-12 79 -25 153 -28 166 l-5 22 161 0 161 0 0 -165z"/>
<path d="M1275 4254 c-61 -21 -110 -68 -142 -132 l-28 -57 0 -325 0 -325 87
-3 87 -3 3 315 3 314 24 26 c23 25 30 26 128 26 l103 0 0 90 0 90 -112 -1
c-71 0 -128 -6 -153 -15z"/>
<path d="M3580 4180 l0 -90 103 0 c98 0 105 -1 128 -26 l24 -26 3 -314 3 -315
87 3 87 3 0 325 0 325 -28 57 c-55 111 -129 148 -299 148 l-108 0 0 -90z"/>
<path d="M1107 3243 c-4 -3 -7 -44 -7 -90 l0 -83 90 0 90 0 0 90 0 90 -83 0
c-46 0 -87 -3 -90 -7z"/>
<path d="M3840 3160 l0 -90 90 0 91 0 -3 88 -3 87 -87 3 -88 3 0 -91z"/>
</g>
</svg>
